<svg width="23" height="16" viewBox="0 0 23 16" fill="none" xmlns="http://www.w3.org/2000/svg">
<path id="Vector" d="M22.3056 2.50589C22.1814 2.02674 21.9335 1.58866 21.5866 1.23557C21.2397 0.882477 20.806 0.626784 20.3292 0.494123C18.5645 5.68014e-06 11.4939 5.682e-06 11.4939 5.682e-06C8.54559 -0.0354252 5.59814 0.121772 2.67035 0.470594C2.1933 0.61295 1.76041 0.874532 1.41253 1.23064C1.06466 1.58675 0.813271 2.02565 0.682111 2.50589C0.365801 4.31994 0.212249 6.15862 0.223287 8.00001C0.211492 9.84142 0.36505 11.6802 0.682111 13.4941C0.810572 13.9731 1.06141 14.4104 1.41 14.7631C1.75858 15.1158 2.19292 15.3718 2.67035 15.5059C4.45858 16 11.4939 16 11.4939 16C14.4461 16.0355 17.3974 15.8783 20.3292 15.5294C20.806 15.3968 21.2397 15.1411 21.5866 14.788C21.9335 14.4349 22.1814 13.9968 22.3056 13.5177C22.63 11.7045 22.7875 9.86544 22.7762 8.02354C22.8005 6.17334 22.6429 4.32524 22.3056 2.50589ZM9.24682 11.4235V4.57648L15.1292 8.00001L9.24682 11.4235Z" fill="#DDDDDD"/>
</svg>
