<svg width="1800" height="1028" viewBox="0 0 1800 1028" fill="none" xmlns="http://www.w3.org/2000/svg">
<g filter="url(#filter0_i_281_14074)">
<path d="M0 26.9896C0 12.0836 12.0837 0 26.9896 0H1773.01C1787.92 0 1800 12.0837 1800 26.9896V1001.01C1800 1015.92 1787.92 1028 1773.01 1028H26.9897C12.0837 1028 0 1015.92 0 1001.01V26.9896Z" fill="white" fill-opacity="0.01"/>
</g>
<path d="M1.55709 26.9896C1.55709 12.9436 12.9436 1.55709 26.9896 1.55709H1773.01C1787.06 1.55709 1798.44 12.9436 1798.44 26.9896V1001.01C1798.44 1015.06 1787.06 1026.44 1773.01 1026.44H26.9897C12.9437 1026.44 1.55709 1015.06 1.55709 1001.01V26.9896Z" stroke="url(#paint0_linear_281_14074)" stroke-width="3.11419"/>
<defs>
<filter id="filter0_i_281_14074" x="0" y="0" width="1800" height="1028" filterUnits="userSpaceOnUse" color-interpolation-filters="sRGB">
<feFlood flood-opacity="0" result="BackgroundImageFix"/>
<feBlend mode="normal" in="SourceGraphic" in2="BackgroundImageFix" result="shape"/>
<feColorMatrix in="SourceAlpha" type="matrix" values="0 0 0 0 0 0 0 0 0 0 0 0 0 0 0 0 0 0 127 0" result="hardAlpha"/>
<feOffset/>
<feGaussianBlur stdDeviation="9.34256"/>
<feComposite in2="hardAlpha" operator="arithmetic" k2="-1" k3="1"/>
<feColorMatrix type="matrix" values="0 0 0 0 1 0 0 0 0 1 0 0 0 0 1 0 0 0 0.3 0"/>
<feBlend mode="normal" in2="shape" result="effect1_innerShadow_281_14074"/>
</filter>
<linearGradient id="paint0_linear_281_14074" x1="0" y1="0" x2="872.882" y2="1572.2" gradientUnits="userSpaceOnUse">
<stop stop-color="#42457B"/>
<stop offset="0.681425" stop-color="#42457B" stop-opacity="0"/>
<stop offset="1" stop-color="#42457B"/>
</linearGradient>
</defs>
</svg>
